{
	"asset":{
		"generator":"Khronos glTF Blender I/O v3.6.27",
		"version":"2.0"
	},
	"extensionsUsed":[
		"KHR_materials_specular",
		"KHR_materials_ior",
		"KHR_materials_clearcoat"
	],
	"scene":0,
	"scenes":[
		{
			"name":"Scene",
			"nodes":[
				0,
				1,
				2,
				3,
				4,
				5,
				6,
				7
			]
		}
	],
	"nodes":[
		{
			"mesh":0,
			"name":"Cone",
			"rotation":[
				-1,
				0,
				0,
				4.371138828673793e-08
			],
			"translation":[
				0,
				-1,
				0
			]
		},
		{
			"mesh":1,
			"name":"Cylinder",
			"translation":[
				0,
				-0.800000011920929,
				0
			]
		},
		{
			"mesh":2,
			"name":"basepart",
			"translation":[
				0,
				-0.6899999380111694,
				0
			]
		},
		{
			"mesh":3,
			"name":"morebase",
			"translation":[
				0,
				-0.5899999737739563,
				0
			]
		},
		{
			"mesh":4,
			"name":"base",
			"rotation":[
				-1,
				0,
				0,
				4.371138828673793e-08
			],
			"translation":[
				0,
				-0.38999995589256287,
				0
			]
		},
		{
			"mesh":5,
			"name":"Torus",
			"scale":[
				1.0161352157592773,
				1.0161352157592773,
				1.0161352157592773
			],
			"translation":[
				0,
				0.019999999552965164,
				0
			]
		},
		{
			"mesh":6,
			"name":"floor",
			"translation":[
				0,
				0.5799999833106995,
				0
			]
		},
		{
			"mesh":7,
			"name":"top",
			"translation":[
				0,
				0.7699999809265137,
				0
			]
		}
	],
	"materials":[
		{
			"doubleSided":true,
			"name":"Material.007",
			"pbrMetallicRoughness":{
				"baseColorFactor":[
					0.11697056144475937,
					0.10702300071716309,
					0.11443539708852768,
					1
				],
				"metallicFactor":0,
				"roughnessFactor":0.5568181872367859
			}
		},
		{
			"doubleSided":true,
			"name":"Material.002",
			"pbrMetallicRoughness":{
				"baseColorFactor":[
					0.6938714981079102,
					0.6653870940208435,
					0.029557041823863983,
					1
				],
				"metallicFactor":0,
				"roughnessFactor":0.5
			}
		},
		{
			"doubleSided":true,
			"name":"Material.008",
			"pbrMetallicRoughness":{
				"baseColorFactor":[
					0.11697056144475937,
					0.10702300071716309,
					0.11443539708852768,
					1
				],
				"metallicFactor":0,
				"roughnessFactor":0.6886363625526428
			}
		},
		{
			"doubleSided":true,
			"name":"Material.003",
			"pbrMetallicRoughness":{
				"baseColorFactor":[
					0.6938714981079102,
					0.6653870940208435,
					0.029557041823863983,
					1
				],
				"metallicFactor":0,
				"roughnessFactor":0.5
			}
		},
		{
			"doubleSided":true,
			"name":"Material.004",
			"pbrMetallicRoughness":{
				"baseColorFactor":[
					0.2460685521364212,
					0.3644559979438782,
					0.39070966839790344,
					1
				],
				"metallicFactor":0,
				"roughnessFactor":0.8681818246841431
			}
		},
		{
			"doubleSided":true,
			"extensions":{
				"KHR_materials_specular":{
					"specularColorFactor":[
						1.7084554390396822,
						1.7084554390396822,
						1.7084554390396822
					]
				},
				"KHR_materials_ior":{
					"ior":1.4500000476837158
				}
			},
			"name":"Material.005",
			"pbrMetallicRoughness":{
				"baseColorFactor":[
					0.3179261088371277,
					0.42546865344047546,
					0.04390374571084976,
					1
				],
				"metallicFactor":0,
				"roughnessFactor":0.22272729873657227
			}
		},
		{
			"doubleSided":true,
			"name":"Material.006",
			"pbrMetallicRoughness":{
				"baseColorFactor":[
					0.6938714981079102,
					0.6653870940208435,
					0.029557041823863983,
					1
				],
				"metallicFactor":0,
				"roughnessFactor":0.5
			}
		},
		{
			"doubleSided":true,
			"extensions":{
				"KHR_materials_clearcoat":{
					"clearcoatFactor":0.2772727310657501,
					"clearcoatRoughnessFactor":0.029999999329447746
				}
			},
			"name":"Material.001",
			"pbrMetallicRoughness":{
				"baseColorFactor":[
					0.011699419468641281,
					0.011699419468641281,
					0.011699419468641281,
					1
				],
				"metallicFactor":0,
				"roughnessFactor":0.8772727251052856
			}
		}
	],
	"meshes":[
		{
			"name":"Cone",
			"primitives":[
				{
					"attributes":{
						"POSITION":0,
						"NORMAL":1,
						"TEXCOORD_0":2
					},
					"indices":3,
					"material":0
				}
			]
		},
		{
			"name":"Cylinder.001",
			"primitives":[
				{
					"attributes":{
						"POSITION":4,
						"NORMAL":5,
						"TEXCOORD_0":6
					},
					"indices":3,
					"material":1
				}
			]
		},
		{
			"name":"Cylinder.003",
			"primitives":[
				{
					"attributes":{
						"POSITION":7,
						"NORMAL":8,
						"TEXCOORD_0":9
					},
					"indices":3,
					"material":2
				}
			]
		},
		{
			"name":"Cylinder.004",
			"primitives":[
				{
					"attributes":{
						"POSITION":10,
						"NORMAL":11,
						"TEXCOORD_0":12
					},
					"indices":3,
					"material":3
				}
			]
		},
		{
			"name":"Cone.001",
			"primitives":[
				{
					"attributes":{
						"POSITION":13,
						"NORMAL":14,
						"TEXCOORD_0":15
					},
					"indices":16,
					"material":4
				}
			]
		},
		{
			"name":"Torus",
			"primitives":[
				{
					"attributes":{
						"POSITION":17,
						"NORMAL":18,
						"TEXCOORD_0":19
					},
					"indices":20,
					"material":5
				}
			]
		},
		{
			"name":"Cylinder.005",
			"primitives":[
				{
					"attributes":{
						"POSITION":21,
						"NORMAL":22,
						"TEXCOORD_0":23
					},
					"indices":3,
					"material":6
				}
			]
		},
		{
			"name":"Torus.001",
			"primitives":[
				{
					"attributes":{
						"POSITION":24,
						"NORMAL":25,
						"TEXCOORD_0":26
					},
					"indices":27,
					"material":7
				}
			]
		}
	],
	"accessors":[
		{
			"bufferView":0,
			"componentType":5126,
			"count":192,
			"max":[
				0.5,
				0.15000009536743164,
				0.5
			],
			"min":[
				-0.5,
				-0.15000009536743164,
				-0.5
			],
			"type":"VEC3"
		},
		{
			"bufferView":1,
			"componentType":5126,
			"count":192,
			"type":"VEC3"
		},
		{
			"bufferView":2,
			"componentType":5126,
			"count":192,
			"type":"VEC2"
		},
		{
			"bufferView":3,
			"componentType":5123,
			"count":372,
			"type":"SCALAR"
		},
		{
			"bufferView":4,
			"componentType":5126,
			"count":192,
			"max":[
				0.6399999856948853,
				0.050000011920928955,
				0.6399999856948853
			],
			"min":[
				-0.6399999856948853,
				-0.050000011920928955,
				-0.6399999856948853
			],
			"type":"VEC3"
		},
		{
			"bufferView":5,
			"componentType":5126,
			"count":192,
			"type":"VEC3"
		},
		{
			"bufferView":6,
			"componentType":5126,
			"count":192,
			"type":"VEC2"
		},
		{
			"bufferView":7,
			"componentType":5126,
			"count":192,
			"max":[
				0.7799999713897705,
				0.050000011920928955,
				0.7799999713897705
			],
			"min":[
				-0.7799999713897705,
				-0.050000011920928955,
				-0.7799999713897705
			],
			"type":"VEC3"
		},
		{
			"bufferView":8,
			"componentType":5126,
			"count":192,
			"type":"VEC3"
		},
		{
			"bufferView":9,
			"componentType":5126,
			"count":192,
			"type":"VEC2"
		},
		{
			"bufferView":10,
			"componentType":5126,
			"count":192,
			"max":[
				0.9300000071525574,
				0.050000011920928955,
				0.9300000071525574
			],
			"min":[
				-0.9300000071525574,
				-0.050000011920928955,
				-0.9300000071525574
			],
			"type":"VEC3"
		},
		{
			"bufferView":11,
			"componentType":5126,
			"count":192,
			"type":"VEC3"
		},
		{
			"bufferView":12,
			"componentType":5126,
			"count":192,
			"type":"VEC2"
		},
		{
			"bufferView":13,
			"componentType":5126,
			"count":324,
			"max":[
				2.2162439823150635,
				0.15000009536743164,
				2.2199997901916504
			],
			"min":[
				-2.2162439823150635,
				-0.15000009536743164,
				-2.2199997901916504
			],
			"type":"VEC3"
		},
		{
			"bufferView":14,
			"componentType":5126,
			"count":324,
			"type":"VEC3"
		},
		{
			"bufferView":15,
			"componentType":5126,
			"count":324,
			"type":"VEC2"
		},
		{
			"bufferView":16,
			"componentType":5123,
			"count":636,
			"type":"SCALAR"
		},
		{
			"bufferView":17,
			"componentType":5126,
			"count":768,
			"max":[
				2.18999981880188,
				0.7618820667266846,
				2.18999981880188
			],
			"min":[
				-2.18999981880188,
				-0.25999999046325684,
				-2.18999981880188
			],
			"type":"VEC3"
		},
		{
			"bufferView":18,
			"componentType":5126,
			"count":768,
			"type":"VEC3"
		},
		{
			"bufferView":19,
			"componentType":5126,
			"count":768,
			"type":"VEC2"
		},
		{
			"bufferView":20,
			"componentType":5123,
			"count":1152,
			"type":"SCALAR"
		},
		{
			"bufferView":21,
			"componentType":5126,
			"count":192,
			"max":[
				0.4099999666213989,
				0.14000001549720764,
				0.4099999666213989
			],
			"min":[
				-0.4099999666213989,
				-0.14000001549720764,
				-0.4099999666213989
			],
			"type":"VEC3"
		},
		{
			"bufferView":22,
			"componentType":5126,
			"count":192,
			"type":"VEC3"
		},
		{
			"bufferView":23,
			"componentType":5126,
			"count":192,
			"type":"VEC2"
		},
		{
			"bufferView":24,
			"componentType":5126,
			"count":960,
			"max":[
				0.44999992847442627,
				0.05706338584423065,
				0.44999992847442627
			],
			"min":[
				-0.44999992847442627,
				-0.05706338584423065,
				-0.44999992847442627
			],
			"type":"VEC3"
		},
		{
			"bufferView":25,
			"componentType":5126,
			"count":960,
			"type":"VEC3"
		},
		{
			"bufferView":26,
			"componentType":5126,
			"count":960,
			"type":"VEC2"
		},
		{
			"bufferView":27,
			"componentType":5123,
			"count":1440,
			"type":"SCALAR"
		}
	],
	"bufferViews":[
		{
			"buffer":0,
			"byteLength":2304,
			"byteOffset":0,
			"target":34962
		},
		{
			"buffer":0,
			"byteLength":2304,
			"byteOffset":2304,
			"target":34962
		},
		{
			"buffer":0,
			"byteLength":1536,
			"byteOffset":4608,
			"target":34962
		},
		{
			"buffer":0,
			"byteLength":744,
			"byteOffset":6144,
			"target":34963
		},
		{
			"buffer":0,
			"byteLength":2304,
			"byteOffset":6888,
			"target":34962
		},
		{
			"buffer":0,
			"byteLength":2304,
			"byteOffset":9192,
			"target":34962
		},
		{
			"buffer":0,
			"byteLength":1536,
			"byteOffset":11496,
			"target":34962
		},
		{
			"buffer":0,
			"byteLength":2304,
			"byteOffset":13032,
			"target":34962
		},
		{
			"buffer":0,
			"byteLength":2304,
			"byteOffset":15336,
			"target":34962
		},
		{
			"buffer":0,
			"byteLength":1536,
			"byteOffset":17640,
			"target":34962
		},
		{
			"buffer":0,
			"byteLength":2304,
			"byteOffset":19176,
			"target":34962
		},
		{
			"buffer":0,
			"byteLength":2304,
			"byteOffset":21480,
			"target":34962
		},
		{
			"buffer":0,
			"byteLength":1536,
			"byteOffset":23784,
			"target":34962
		},
		{
			"buffer":0,
			"byteLength":3888,
			"byteOffset":25320,
			"target":34962
		},
		{
			"buffer":0,
			"byteLength":3888,
			"byteOffset":29208,
			"target":34962
		},
		{
			"buffer":0,
			"byteLength":2592,
			"byteOffset":33096,
			"target":34962
		},
		{
			"buffer":0,
			"byteLength":1272,
			"byteOffset":35688,
			"target":34963
		},
		{
			"buffer":0,
			"byteLength":9216,
			"byteOffset":36960,
			"target":34962
		},
		{
			"buffer":0,
			"byteLength":9216,
			"byteOffset":46176,
			"target":34962
		},
		{
			"buffer":0,
			"byteLength":6144,
			"byteOffset":55392,
			"target":34962
		},
		{
			"buffer":0,
			"byteLength":2304,
			"byteOffset":61536,
			"target":34963
		},
		{
			"buffer":0,
			"byteLength":2304,
			"byteOffset":63840,
			"target":34962
		},
		{
			"buffer":0,
			"byteLength":2304,
			"byteOffset":66144,
			"target":34962
		},
		{
			"buffer":0,
			"byteLength":1536,
			"byteOffset":68448,
			"target":34962
		},
		{
			"buffer":0,
			"byteLength":11520,
			"byteOffset":69984,
			"target":34962
		},
		{
			"buffer":0,
			"byteLength":11520,
			"byteOffset":81504,
			"target":34962
		},
		{
			"buffer":0,
			"byteLength":7680,
			"byteOffset":93024,
			"target":34962
		},
		{
			"buffer":0,
			"byteLength":2880,
			"byteOffset":100704,
			"target":34963
		}
	],
	"buffers":[
		{
			"byteLength":103584,
			"uri":"data:application/octet-stream;base64,"
		}
	]
}
